<svg width="20" height="28" viewBox="0 0 20 28" fill="none" xmlns="http://www.w3.org/2000/svg">
<g id="Frame" clip-path="url(#clip0_4_594)">
<g id="Group">
<g id="Vector" filter="url(#filter0_i_4_594)">
<path d="M16.3563 2.31788C15.6274 2.10927 14.8757 1.99338 14.0784 1.99338C9.68207 1.99338 6.12854 5.60927 6.12854 10.0828C6.12854 10.5464 6.12854 11.1026 6.15132 11.7517V24.8709C6.15132 26.6093 4.7618 28 3.07615 28C1.36772 28 0.000976562 26.5861 0.000976562 24.8709V10.1755C0.000976562 4.56623 4.48845 0 10.001 0C12.4156 0 14.6251 0.880795 16.3563 2.31788Z" fill="url(#paint0_linear_4_594)"/>
</g>
<g id="Vector_2" filter="url(#filter1_i_4_594)">
<path d="M20.0011 9.92057V10.1755C20.0011 10.2914 20.0011 10.3842 19.9783 10.4769C19.6822 15.8312 15.3086 20.0961 9.97832 20.0961C8.26989 20.0961 6.90315 18.6822 6.90315 16.9669C6.90315 15.2285 8.29267 13.8378 9.97832 13.8378C12.0512 13.8378 13.7596 12.1457 13.8052 10.0596C13.7369 7.97356 12.0512 6.2815 9.97832 6.2815C8.77103 6.2815 7.67764 6.86097 6.97149 7.76495C6.44757 8.43713 6.15144 9.27157 6.15144 10.1987V11.7749C6.12866 11.1259 6.12866 10.5696 6.12866 10.106C6.12866 5.6325 9.68219 2.0166 14.0785 2.0166C14.8758 2.0166 15.6275 2.1325 16.3565 2.3411C18.4521 4.10269 19.8416 6.69872 20.0011 9.64243C20.0011 9.71197 20.0011 9.82786 20.0011 9.92057Z" fill="url(#paint1_linear_4_594)"/>
</g>
</g>
</g>
<defs>
<filter id="filter0_i_4_594" x="0.000976562" y="0" width="16.3553" height="28" filterUnits="userSpaceOnUse" color-interpolation-filters="sRGB">
<feFlood flood-opacity="0" result="BackgroundImageFix"/>
<feBlend mode="normal" in="SourceGraphic" in2="BackgroundImageFix" result="shape"/>
<feColorMatrix in="SourceAlpha" type="matrix" values="0 0 0 0 0 0 0 0 0 0 0 0 0 0 0 0 0 0 127 0" result="hardAlpha"/>
<feOffset dx="-0.5" dy="-0.5"/>
<feComposite in2="hardAlpha" operator="arithmetic" k2="-1" k3="1"/>
<feColorMatrix type="matrix" values="0 0 0 0 0.883333 0 0 0 0 0.926449 0 0 0 0 1 0 0 0 1 0"/>
<feBlend mode="normal" in2="shape" result="effect1_innerShadow_4_594"/>
</filter>
<filter id="filter1_i_4_594" x="6.12866" y="2.0166" width="13.8724" height="18.0795" filterUnits="userSpaceOnUse" color-interpolation-filters="sRGB">
<feFlood flood-opacity="0" result="BackgroundImageFix"/>
<feBlend mode="normal" in="SourceGraphic" in2="BackgroundImageFix" result="shape"/>
<feColorMatrix in="SourceAlpha" type="matrix" values="0 0 0 0 0 0 0 0 0 0 0 0 0 0 0 0 0 0 127 0" result="hardAlpha"/>
<feOffset dx="-0.5" dy="-0.5"/>
<feComposite in2="hardAlpha" operator="arithmetic" k2="-1" k3="1"/>
<feColorMatrix type="matrix" values="0 0 0 0 0.883333 0 0 0 0 0.926449 0 0 0 0 1 0 0 0 1 0"/>
<feBlend mode="normal" in2="shape" result="effect1_innerShadow_4_594"/>
</filter>
<linearGradient id="paint0_linear_4_594" x1="5.15557" y1="1.52301" x2="10.2901" y2="27.584" gradientUnits="userSpaceOnUse">
<stop stop-color="white"/>
<stop offset="0.484375" stop-color="#F2F2F2"/>
<stop offset="1" stop-color="#ACACAC"/>
</linearGradient>
<linearGradient id="paint1_linear_4_594" x1="10.5007" y1="3" x2="13.0649" y2="20.0961" gradientUnits="userSpaceOnUse">
<stop stop-color="#BCBCBC"/>
<stop offset="0.484375" stop-color="white"/>
<stop offset="1" stop-color="white"/>
</linearGradient>
<clipPath id="clip0_4_594">
<rect width="20" height="28" fill="white" transform="translate(0.000976562)"/>
</clipPath>
</defs>
</svg>
