<svg width="160" height="160" viewBox="0 0 160 160" fill="none" xmlns="http://www.w3.org/2000/svg">
<g id="insert-picture-icon 1">
<g id="Group">
<path id="Vector" d="M141.912 5.00787H18.0963C8.11596 5.00787 0 13.1212 0 23.1133V136.908C0 146.888 8.11596 154.993 18.0963 154.993H141.912C151.892 154.993 159.999 146.888 159.999 136.908V23.1133C160 13.1212 151.893 5.00787 141.912 5.00787ZM103.464 31.9341C113.116 31.9341 120.943 39.7619 120.943 49.4129C120.943 59.0639 113.115 66.8917 103.464 66.8917C93.8099 66.8917 85.9853 59.0639 85.9853 49.4129C85.9853 39.7619 93.8099 31.9341 103.464 31.9341ZM136.237 138.265H79.9984H26.2653C21.438 138.265 19.2881 134.772 21.4642 130.463L51.461 71.049C53.6345 66.7407 57.7768 66.3561 60.7103 70.1894L90.8732 109.607C93.8067 113.441 98.934 113.767 102.328 110.333L109.707 102.861C113.097 99.4257 118.094 99.851 120.861 103.804L139.969 131.098C142.731 135.057 141.064 138.265 136.237 138.265Z" fill="#DCDCDC"/>
</g>
</g>
</svg>
