<svg width="392" height="368" viewBox="0 0 392 368" fill="none" xmlns="http://www.w3.org/2000/svg">
<path d="M347.685 0.269333H44.336C19.8841 0.269333 0 20.1469 0 44.6277V323.424C0 347.876 19.8841 367.732 44.336 367.732H347.684C372.136 367.732 391.999 347.876 391.999 323.424V44.6277C392 20.1469 372.137 0.269333 347.685 0.269333ZM253.487 66.2387C277.133 66.2387 296.31 85.4168 296.31 109.062C296.31 132.707 277.132 151.885 253.487 151.885C229.834 151.885 210.664 132.707 210.664 109.062C210.664 85.4168 229.834 66.2387 253.487 66.2387ZM333.781 326.749H195.996H64.35C52.523 326.749 47.2557 318.192 52.5873 307.635L126.08 162.07C131.405 151.515 141.553 150.573 148.74 159.964L222.639 256.538C229.826 265.931 242.388 266.73 250.703 258.315L268.781 240.008C277.089 231.593 289.329 232.635 296.109 242.32L342.923 309.19C349.69 318.89 345.608 326.749 333.781 326.749Z" fill="#DCDCDC"/>
</svg>
