<svg width="129" height="25" viewBox="0 0 129 25" fill="none" xmlns="http://www.w3.org/2000/svg">
<g id="PATRIOT">
<path d="M8.74907 0.442001C10.9872 0.442001 12.8523 1.19 14.3444 2.686C15.8591 4.182 16.6164 6.04067 16.6164 8.262C16.6164 10.4607 15.8591 12.3193 14.3444 13.838C12.8523 15.334 10.9872 16.082 8.74907 16.082H3.89978V24.242H0V0.442001H8.74907ZM8.74907 12.41C9.90205 12.41 10.8516 12.0247 11.5976 11.254C12.3436 10.4607 12.7167 9.46333 12.7167 8.262C12.7167 7.06067 12.3436 6.07467 11.5976 5.304C10.8516 4.51067 9.90205 4.114 8.74907 4.114H3.89978V12.41H8.74907Z" fill="#999999"/>
<path d="M33.4205 24.242L31.7588 19.448H21.6533L19.9917 24.242H15.7528L24.3662 0.442001H29.0459L37.6254 24.242H33.4205ZM22.9419 15.776H30.4702L26.7061 5.032L22.9419 15.776Z" fill="#999999"/>
<path d="M54.2578 0.442001V4.182H47.5773V24.242H43.6775V4.182H36.9631V0.442001H54.2578Z" fill="#999999"/>
<path d="M71.0112 24.242L65.9924 15.572H61.3804V24.242H57.4807V0.442001H66.9758C69.1009 0.442001 70.8982 1.19 72.3677 2.686C73.8597 4.15934 74.6058 5.96133 74.6058 8.092C74.6058 9.61067 74.1649 11.0047 73.2833 12.274C72.4242 13.5207 71.2938 14.4273 69.8921 14.994L75.284 24.242H71.0112ZM61.3804 4.114V12.07H66.9758C68.0157 12.07 68.8974 11.6847 69.6208 10.914C70.3443 10.1433 70.706 9.20267 70.706 8.092C70.706 6.98133 70.3443 6.04067 69.6208 5.27C68.8974 4.49933 68.0157 4.114 66.9758 4.114H61.3804Z" fill="#999999"/>
<path d="M78.6168 0.442001H82.5166V24.242H78.6168V0.442001Z" fill="#999999"/>
<path d="M107.437 21.114C105.064 23.494 102.158 24.684 98.7221 24.684C95.2858 24.684 92.3695 23.494 89.9731 21.114C87.5993 18.7113 86.4124 15.7873 86.4124 12.342C86.4124 8.89667 87.5993 5.984 89.9731 3.604C92.3695 1.20133 95.2858 0 98.7221 0C102.158 0 105.064 1.20133 107.437 3.604C109.834 5.984 111.032 8.89667 111.032 12.342C111.032 15.7873 109.834 18.7113 107.437 21.114ZM92.7199 18.462C94.3476 20.0713 96.3484 20.876 98.7221 20.876C101.096 20.876 103.085 20.0713 104.691 18.462C106.318 16.83 107.132 14.79 107.132 12.342C107.132 9.894 106.318 7.86533 104.691 6.256C103.085 4.624 101.096 3.808 98.7221 3.808C96.3484 3.808 94.3476 4.624 92.7199 6.256C91.1148 7.86533 90.3122 9.894 90.3122 12.342C90.3122 14.79 91.1148 16.83 92.7199 18.462Z" fill="#999999"/>
<path d="M129 0.442001V4.182H122.32V24.242H118.42V4.182H111.705V0.442001H129Z" fill="#999999"/>
</g>
</svg>
